#!OML:ASF I:\golf\golf\golf 2\Subject 1\2002-09-07\Subject1.ASF
:FULLY-SPECIFIED
:DEGREES
292
root 1.08103 16.2212 -4.54036 52.6711 7.90473 1.84927
lowerback 37.7599 9.42919 2.44393
upperback 18.2749 12.1274 8.15393
thorax 0.421595 5.45856 3.3498
lowerneck -8.61955 -10.8813 -6.0601
upperneck -3.28237 -14.2917 -3.92713
head 0.483917 -7.22368 -0.67838
rclavicle -4.77083e-014 -4.6118e-014
rhumerus 60.6598 -18.8254 -44.7521
rradius 25.1905
rwrist 1.18614
rhand -47.2992 28.9203
rfingers 7.12502
rthumb -19.9949 -0.0709163
lclavicle -4.77083e-014 -4.6118e-014
lhumerus -1.35863 -63.9073 63.4708
lradius 89.8291
lwrist -32.2958
lhand -57.1628 32.4489
lfingers 7.12502
lthumb -29.447 60.1349
rfemur -90.1733 -21.5958 30.6565
rtibia 61.1867
rfoot -15.7777 -8.49516
rtoes -19.763
lfemur -93.5377 2.69681 -24.0061
ltibia 52.8421
lfoot -9.31895 -19.9123
ltoes -1.2245
293
root 1.12702 16.134 -4.56644 54.4261 8.53786 2.32515
lowerback 35.4983 8.84233 3.27693
upperback 18.1757 11.6391 8.03522
thorax 1.24677 5.32657 3.19489
lowerneck -8.50238 -10.918 -5.80092
upperneck -3.51112 -14.4041 -4.17696
head 0.354747 -7.2776 -0.773845
rclavicle -7.63333e-014 -7.15625e-014
rhumerus 60.5564 -18.9584 -44.4954
rradius 25.1159
rwrist 1.51287
rhand -47.2501 28.4973
rfingers 7.12502
rthumb -19.9477 -0.4989
lclavicle -7.63333e-014 -7.15625e-014
lhumerus -0.977761 -64.1006 63.2704
lradius 89.8033
lwrist -32.1986
lhand -56.7547 32.3576
lfingers 7.12502
lthumb -29.0572 60.1115
rfemur -92.5962 -22.1099 31.5301
rtibia 61.2922
rfoot -15.44 -8.38471
rtoes -19.6888
lfemur -95.5843 1.50467 -23.6335
ltibia 52.8544
lfoot -8.96393 -19.563
ltoes -1.69504
294
root 1.12475 16.1657 -4.54164 54.0236 8.3021 2.16971
lowerback 36.065 9.08421 2.97978
upperback 18.2268 11.8519 8.13314
thorax 1.02758 5.39256 3.31909
lowerneck -8.4647 -10.9162 -5.744
upperneck -3.60653 -14.4196 -4.18241
head 0.313856 -7.28363 -0.777341
rclavicle -6.36111e-015 2.22639e-014
rhumerus 60.5414 -18.9752 -44.4117
rradius 24.9762
rwrist 1.78012
rhand -47.2456 28.3035
rfingers 7.12502
rthumb -19.9434 -0.693092
lclavicle -6.36111e-015 2.22639e-014
lhumerus -0.725836 -64.2416 63.0378
lradius 89.6241
lwrist -32.5118
lhand -56.7035 33.5684
lfingers 7.12502
lthumb -29.0083 61.3307
rfemur -91.8581 -21.9228 31.1973
rtibia 61.1621
rfoot -15.5478 -8.44265
rtoes -19.763
lfemur -95.0132 1.868 -23.822
ltibia 52.8143
lfoot -9.04079 -19.7071
ltoes -1.17673
295
root 1.16527 16.0945 -4.55507 55.2932 8.84153 2.5992
lowerback 34.4577 8.58465 3.70997
upperback 18.1054 11.4308 8.06663
thorax 1.60552 5.27013 3.17582
lowerneck -8.39315 -10.9532 -6.2713
upperneck -3.44797 -14.3973 -3.62561
head 0.431798 -7.2667 -0.543755
rclavicle 3.18055e-014 -1.43125e-014
rhumerus 60.3573 -18.9766 -44.0517
rradius 24.8954
rwrist 1.89908
rhand -47.3363 28.3091
rfingers 7.12502
rthumb -20.0306 -0.6784
lclavicle 3.18055e-014 -1.43125e-014
lhumerus -0.726006 -64.3134 63.1786
lradius 89.6354
lwrist -32.1923
lhand -56.7431 33.0015
lfingers 7.12502
lthumb -29.0462 60.7573
rfemur -93.6395 -22.4057 31.8118
rtibia 61.3796
rfoot -15.3252 -8.44271
rtoes -19.9752
lfemur -96.4949 0.861471 -23.4338
ltibia 52.8812
lfoot -8.61989 -19.4183
ltoes -0.885168
296
root 1.17932 16.0887 -4.54368 55.4939 8.86301 2.71258
lowerback 34.3188 8.51708 3.77054
upperback 18.0798 11.3648 8.06163
thorax 1.64032 5.24495 3.17204
lowerneck -8.29377 -10.9521 -6.33782
upperneck -3.57735 -14.4072 -3.56233
head 0.383675 -7.26616 -0.504848
rclavicle 9.85972e-014 -5.725e-014
rhumerus 60.1827 -18.9059 -43.5511
rradius 24.919
rwrist 1.78748
rhand -47.4725 28.3237
rfingers 7.12502
rthumb -20.1615 -0.650061
lclavicle 9.85972e-014 -5.725e-014
lhumerus -0.765978 -64.2904 63.2902
lradius 89.695
lwrist -31.9685
lhand -56.3927 32.7915
lfingers 7.12502
lthumb -28.7114 60.6045
rfemur -93.8073 -22.4984 31.7754
rtibia 61.3617
rfoot -15.3136 -8.47179
rtoes -19.9238
lfemur -96.6331 0.694304 -23.4751
ltibia 52.8862
lfoot -8.64511 -19.3969
ltoes -0.887598
297
root 1.18526 16.1072 -4.52449 55.3189 8.71481 2.66493
lowerback 34.6373 8.61779 3.62947
upperback 18.1166 11.4526 8.09415
thorax 1.53368 5.27013 3.21919
lowerneck -8.25632 -10.9322 -5.9261
upperneck -3.86598 -14.4601 -4.02524
head 0.221656 -7.29216 -0.683208
rclavicle -2.22639e-014 1.59028e-014
rhumerus 60.0797 -18.8648 -43.0949
rradius 24.9079
rwrist 1.63191
rhand -47.5746 28.3732
rfingers 7.12502
rthumb -20.2596 -0.590197
lclavicle -2.22639e-014 1.59028e-014
lhumerus -0.564731 -64.5135 63.1268
lradius 89.4863
lwrist -33.0833
lhand -55.8506 36.0355
lfingers 7.12502
lthumb -28.1934 63.9351
rfemur -93.4278 -22.43 31.5553
rtibia 61.3099
rfoot -15.4142 -8.49874
rtoes -19.9598
lfemur -96.3337 0.843914 -23.6427
ltibia 52.8911
lfoot -8.84186 -19.4661
ltoes -1.02221
298
root 1.1919 16.1189 -4.50984 55.2554 8.66838 2.54549
lowerback 34.7448 8.71239 3.59721
upperback 18.1447 11.5566 8.1666
thorax 1.50119 5.31016 3.26888
lowerneck -8.34516 -10.9176 -5.82359
upperneck -3.89114 -14.4505 -4.18314
head 0.208961 -7.2903 -0.747596
rclavicle -6.99722e-014 -3.65764e-014
rhumerus 60.0214 -18.8435 -42.72
rradius 24.7849
rwrist 1.46151
rhand -47.5903 28.3936
rfingers 7.12502
rthumb -20.2747 -0.568242
lclavicle -6.99722e-014 -3.65764e-014
lhumerus -0.293097 -64.2663 62.9911
lradius 89.5945
lwrist -31.4621
lhand -56.885 31.773
lfingers 7.12502
lthumb -29.1817 59.5054
rfemur -93.2071 -22.3381 31.5406
rtibia 61.2075
rfoot -15.5176 -8.52428
rtoes -19.9618
lfemur -96.2236 0.991011 -23.6874
ltibia 52.8871
lfoot -8.92268 -19.5367
ltoes -0.931581
299
root 1.19588 16.1346 -4.49607 55.1578 8.65727 2.36932
lowerback 34.8689 8.8395 3.57201
upperback 18.1734 11.7027 8.27365
thorax 1.45533 5.36797 3.3354
lowerneck -8.14514 -10.9612 -5.35884
upperneck -4.33274 -14.6265 -4.67088
head -0.0320336 -7.37161 -0.927806
rclavicle 5.40694e-014 2.38542e-014
rhumerus 59.8358 -18.7564 -42.0313
rradius 24.6661
rwrist 0.895951
rhand -47.5364 28.392
rfingers 7.12502
rthumb -20.2229 -0.575291
lclavicle 5.40694e-014 2.38542e-014
lhumerus -0.340156 -64.3216 63.0492
lradius 89.444
lwrist -31.8422
lhand -57.2067 31.4585
lfingers 7.12502
lthumb -29.4888 59.1371
rfemur -92.9516 -22.2133 31.5763
rtibia 61.1201
rfoot -15.6017 -8.56844
rtoes -20.1206
lfemur -96.087 1.18653 -23.6652
ltibia 52.8895
lfoot -8.97227 -19.6232
ltoes -0.593293
300
root 1.21047 16.1249 -4.49033 55.4621 8.76904 2.42683
lowerback 34.5096 8.77342 3.72496
upperback 18.1458 11.6567 8.28181
thorax 1.57768 5.36087 3.31709
lowerneck -7.84997 -11.0036 -4.77891
upperneck -4.8829 -14.832 -5.17786
head -0.332205 -7.46364 -1.12084
rclavicle -4.77083e-014 6.20208e-014
rhumerus 59.3587 -18.4628 -40.7842
rradius 24.6905
rwrist -0.322927
rhand -47.5563 28.4819
rfingers 7.12502
rthumb -20.2421 -0.483408
lclavicle -4.77083e-014 6.20208e-014
lhumerus -0.412306 -64.511 63.1052
lradius 89.6632
lwrist -31.4475
lhand -57.364 31.385
lfingers 7.12502
lthumb -29.639 59.037
rfemur -93.2615 -22.2715 31.6591
rtibia 61.0832
rfoot -15.4929 -8.62385
rtoes -20.4245
lfemur -96.3945 0.998332 -23.5992
ltibia 52.8913
lfoot -8.92734 -19.5875
ltoes -0.622882
301
root 1.23434 16.0983 -4.48609 55.9822 8.88752 2.69541
lowerback 33.9986 8.45672 3.96702
upperback 18.0471 11.3323 8.11795
thorax 1.74188 5.24 3.17189
lowerneck -8.04123 -10.9255 -5.19864
upperneck -4.56914 -14.6254 -4.75168
head -0.139962 -7.36578 -0.95714
rclavicle 3.49861e-014 1.59028e-014
rhumerus 60.3712 -19.3105 -44.0525
rradius 25.1958
rwrist 2.66141
rhand -46.9816 28.234
rfingers 7.12502
rthumb -19.6896 -0.788876
lclavicle 3.49861e-014 1.59028e-014
lhumerus -0.812517 -64.676 63.214
lradius 89.5897
lwrist -32.9312
lhand -56.8893 35.6255
lfingers 7.12502
lthumb -29.1858 63.3572
rfemur -93.8777 -22.5159 31.7113
rtibia 61.0486
rfoot -15.3128 -8.64213
rtoes -20.4229
lfemur -96.9062 0.540909 -23.6083
ltibia 52.8726
lfoot -8.89149 -19.4331
ltoes -1.29066
302
root 1.2426 16.1139 -4.46663 55.8323 8.68677 2.76943
lowerback 34.2604 8.55569 3.7926
upperback 18.0681 11.4115 8.14585
thorax 1.63128 5.26126 3.23671
lowerneck -8.20633 -10.9503 -5.56807
upperneck -4.21246 -14.5684 -4.40599
head 0.0502687 -7.34405 -0.828856
rclavicle 1.59028e-014 -3.18055e-015
rhumerus 60.4746 -19.4844 -44.0534
rradius 24.9464
rwrist 2.83993
rhand -46.89 28.2673
rfingers 7.12502
rthumb -19.6015 -0.764573
lclavicle 1.59028e-014 -3.18055e-015
lhumerus -0.585666 -64.356 63.2383
lradius 89.6682
lwrist -31.5148
lhand -57.1678 30.8712
lfingers 7.12502
lthumb -29.4517 58.5564
rfemur -93.5238 -22.5406 31.3797
rtibia 60.9359
rfoot -15.2942 -8.68712
rtoes -20.5365
lfemur -96.5804 0.579123 -23.8618
ltibia 52.8167
lfoot -9.04489 -19.4343
ltoes -1.63611
